<svg viewBox="0 0 25 25" xmlns="http://www.w3.org/2000/svg"><defs><style>.cls-1{fill:#0070d4;}.cls-2{fill:#ffbd1b;}</style></defs><title></title><g id="Layer_5"><path class="cls-1" d="M10.5,15a.5.5,0,0,1-.5-.5A4.5,4.5,0,0,0,5.5,10a.5.5,0,0,1,0-1A5.51,5.51,0,0,1,11,14.5.5.5,0,0,1,10.5,15Z"></path><path class="cls-1" d="M5.5,18A3.5,3.5,0,1,1,9,14.5,3.5,3.5,0,0,1,5.5,18Zm0-6A2.5,2.5,0,1,0,8,14.5,2.5,2.5,0,0,0,5.5,12Z"></path><path class="cls-1" d="M19.5,18A3.5,3.5,0,1,1,23,14.5,3.5,3.5,0,0,1,19.5,18Zm0-6A2.5,2.5,0,1,0,22,14.5,2.5,2.5,0,0,0,19.5,12Z"></path><path class="cls-2" d="M12.5,15h-7a.5.5,0,0,1-.29-.91l7-5A.5.5,0,0,1,13,9.5v5A.5.5,0,0,1,12.5,15ZM7.06,14H12V10.47Z"></path><path class="cls-2" d="M12.5,15a.5.5,0,0,1-.5-.5v-5a.5.5,0,0,1,.5-.5h7a.5.5,0,0,1,.29.91l-7,5A.5.5,0,0,1,12.5,15Zm.5-5v3.53L17.94,10Z"></path><path class="cls-2" d="M19.5,15a.5.5,0,0,1-.5-.5v-5a.5.5,0,0,1,1,0v5A.5.5,0,0,1,19.5,15Z"></path><path class="cls-1" d="M13.5,8h-2a.5.5,0,0,1,0-1h2a.5.5,0,0,1,0,1Z"></path><path class="cls-1" d="M19.5,10a.5.5,0,0,1-.5-.5V6.71L18.29,6H17.5a.5.5,0,0,1,0-1h1a.5.5,0,0,1,.35.15l1,1A.5.5,0,0,1,20,6.5v3A.5.5,0,0,1,19.5,10Z"></path><rect class="cls-2" height="2" rx="0.5" ry="0.5" width="8" x="2" y="18"></rect><rect class="cls-2" height="2" rx="0.5" ry="0.5" width="12" x="11" y="18"></rect></g></svg>