<svg enable-background="new 0 0 32 32" version="1.1" viewBox="0 0 32 32" xml:space="preserve" xmlns="http://www.w3.org/2000/svg" xmlns:xlink="http://www.w3.org/1999/xlink"><g id="Desktop25"></g><g id="Desktop24"></g><g id="Desktop23"></g><g id="Desktop22"></g><g id="Desktop21"></g><g id="Desktop20"></g><g id="Desktop19"><g><path d="M22.5898,17.5898c-0.2559,0-0.5117-0.0977-0.707-0.293l-6.21-6.21c-0.3906-0.3906-0.3906-1.0234,0-1.4141    s1.0234-0.3906,1.4141,0l6.21,6.21c0.3906,0.3906,0.3906,1.0234,0,1.4141C23.1016,17.4922,22.8457,17.5898,22.5898,17.5898z" fill="#3F51B5"></path></g><g><path d="M18.5303,24.4697c-0.2559,0-0.5117-0.0977-0.707-0.293c-0.3906-0.3906-0.3906-1.0234,0-1.4141    l4.0596-4.0596c0.3906-0.3906,1.0234-0.3906,1.4141,0s0.3906,1.0234,0,1.4141l-4.0596,4.0596    C19.042,24.3721,18.7861,24.4697,18.5303,24.4697z" fill="#3F51B5"></path></g><g><path d="M24,30c0,0.55-0.45,1-1,1H9c-0.55,0-1-0.45-1-1c0-4.41,3.59-8,8-8S24,25.59,24,30z" fill="#3F51B5"></path></g><g><path d="M11.97,12.96C11.74,14.69,10.25,16,8.5,16C6.57,16,5,14.43,5,12.5c0-1.75,1.31-3.24,3.04-3.47    c0.3-0.05,0.62,0.06,0.84,0.28l2.81,2.81C11.91,12.34,12.01,12.65,11.97,12.96z" fill="#FFC10A"></path></g><g><path d="M19.81,7.29l-5.89,8.25c-0.17,0.24-0.43,0.39-0.73,0.42h-0.08c-0.26,0-0.52-0.1-0.71-0.29L5.33,8.6    C5.12,8.39,5.02,8.1,5.04,7.81c0.03-0.3,0.18-0.56,0.42-0.73l8.25-5.89C14.1,0.9,14.65,0.95,15,1.29L19.71,6    C20.05,6.35,20.1,6.89,19.81,7.29z" fill="#2197F3"></path></g><g><path d="M27,18c0,1.65-1.35,3-3,3c-0.81,0-1.57-0.32-2.13-0.89C21.32,19.57,21,18.81,21,18s0.32-1.57,0.89-2.13    C22.43,15.32,23.19,15,24,15C25.65,15,27,16.35,27,18z" fill="#FFC10A"></path></g></g><g id="Desktop18"></g><g id="Desktop17"></g><g id="Desktop16"></g><g id="Desktop15"></g><g id="Desktop14"></g><g id="Desktop13"></g><g id="Desktop12"></g><g id="Desktop11"></g><g id="Desktop10"></g><g id="Desktop09"></g><g id="Desktop08"></g><g id="Desktop07"></g><g id="Desktop06"></g><g id="Desktop05"></g><g id="Desktop04"></g><g id="Desktop03"></g><g id="Desktop02"></g><g id="Desktop01"></g></svg>