<svg height="512px" style="enable-background:new 0 0 512 512;" version="1.1" viewBox="0 0 512 512" width="512px" xml:space="preserve" xmlns="http://www.w3.org/2000/svg" xmlns:xlink="http://www.w3.org/1999/xlink"><g id="_x35_65_x2C__Lock_x2C__Locker_x2C__Heart_x2C__Heart_Hacker_x2C__Heart_Lock"><g><path d="M256,65.71c27.52,0,52.44,11.16,70.48,29.2c18.039,18.03,29.189,42.95,29.189,70.479v36.24h-36.24    v-36.24c0-17.51-7.1-33.369-18.58-44.85c-11.479-11.479-27.33-18.58-44.85-18.58c-35.03,0-63.431,28.4-63.431,63.43v36.24H156.33    v-36.24C156.33,110.34,200.95,65.71,256,65.71z" style="fill:#415A6B;"></path><g><path d="M165.391,175.748c0-55.05,44.62-99.68,99.67-99.68c27.443,0,52.302,11.101,70.33,29.053     c-2.74-3.603-5.715-7.017-8.91-10.211c-18.04-18.04-42.961-29.2-70.48-29.2c-55.05,0-99.67,44.63-99.67,99.68v36.24h9.061     V175.748z" style="fill:#344D5B;"></path></g><path d="M111.02,400.98V232.44c0-17.021,13.79-30.811,30.811-30.811h14.5h36.239h126.86h36.24h14.5    c17.021,0,30.811,13.79,30.811,30.811v5.439V415.48c0,17.01-13.79,30.81-30.811,30.81H141.83c-17.021,0-30.811-13.8-30.811-30.81    V400.98z M310.37,299.511c0-14.021-12.17-25.391-27.21-25.391c-13.59,0-20.38,6.351-27.181,19.04    c-6.79-12.689-13.58-19.04-27.17-19.04c-15,0-27.18,11.37-27.18,25.391c0,25.38,27.18,39.84,54.35,65.22    C283.16,339.351,310.37,324.891,310.37,299.511z M210.689,246.94v-18.12h-18.12v18.12H210.689z M183.51,246.94v-18.12h-18.12    v18.12H183.51z M156.33,246.94v-18.12H138.2v18.12H156.33z" style="fill:#FFECB2;"></path><g><path d="M122.02,427.98v-14.5V244.94c0-17.021,13.79-30.811,30.811-30.811h14.5h36.239h126.86h36.24h14.5     c6.193,0,11.955,1.833,16.784,4.977c-4.97-10.341-15.541-17.477-27.784-17.477h-14.5h-36.24h-126.86H156.33h-14.5     c-17.021,0-30.811,13.79-30.811,30.811v168.54v14.5c0,10.82,5.585,20.335,14.027,25.832     C123.107,437.277,122.02,432.756,122.02,427.98z" style="fill:#EFD99E;"></path></g><path d="M283.16,274.12c15.04,0,27.21,11.37,27.21,25.391c0,25.38-27.21,39.84-54.391,65.22    c-27.17-25.38-54.35-39.84-54.35-65.22c0-14.021,12.18-25.391,27.18-25.391c13.59,0,20.38,6.351,27.17,19.04    C262.78,280.471,269.57,274.12,283.16,274.12z" style="fill:#EF3E5C;"></path><g><g><g><path d="M219.75,304.046c0-13.332,11.016-24.26,24.994-25.302c-4.206-3.077-9.244-4.624-15.935-4.624       c-15,0-27.18,11.37-27.18,25.391c0,25.38,27.18,39.84,54.35,65.22c2.153-2.01,4.304-3.944,6.443-5.828       C239.655,339.491,219.75,325.764,219.75,304.046z" style="fill:#E42A53;"></path></g></g></g><rect height="18.12" style="fill:#415A6B;" width="18.12" x="192.569" y="228.82"></rect><rect height="18.12" style="fill:#415A6B;" width="18.12" x="165.39" y="228.82"></rect><rect height="18.12" style="fill:#415A6B;" width="18.13" x="138.2" y="228.82"></rect><path d="M353.61,405.98H118.02c-2.761,0-5-2.238-5-5s2.239-5,5-5H353.61c2.762,0,5,2.238,5,5    S356.372,405.98,353.61,405.98z" style="fill:#EFD99E;"></path></g></g><g id="Layer_1"></g></svg>