<svg id="icons" viewBox="0 0 480 480" xmlns="http://www.w3.org/2000/svg"><defs><style>.cls-1{fill:#e55433;}.cls-2{fill:#ffbc00;}.cls-3{fill:#0071bc;}.cls-4{fill:#7fb757;}.cls-5{fill:#efdec0;}.cls-6,.cls-7{fill:none;stroke:#000;stroke-linecap:round;stroke-linejoin:round;stroke-width:4.5px;}.cls-7{stroke-dasharray:8.96 8.96 8.96 8.96 8.96 8.96;}</style></defs><title></title><path class="cls-1" d="M284.91,328.83a7.41,7.41,0,1,1-7.41,7.41A7.41,7.41,0,0,1,284.91,328.83Z"></path><path class="cls-1" d="M240.45,328.83a7.41,7.41,0,1,1-7.41,7.41A7.41,7.41,0,0,1,240.45,328.83Z"></path><path class="cls-1" d="M196,328.83a7.41,7.41,0,1,1-7.41,7.41A7.41,7.41,0,0,1,196,328.83Z"></path><path class="cls-2" d="M196,358.48a7.41,7.41,0,0,1,7.41,7.41c0,4.09-7.41,10.37-7.41,10.37s-7.41-6.28-7.41-10.37A7.41,7.41,0,0,1,196,358.48Z"></path><path class="cls-2" d="M240.45,358.48a7.41,7.41,0,0,1,7.41,7.41c0,4.09-7.41,10.37-7.41,10.37S233,370,233,365.89A7.41,7.41,0,0,1,240.45,358.48Z"></path><path class="cls-2" d="M284.91,358.48a7.41,7.41,0,0,1,7.41,7.41c0,4.09-7.41,10.37-7.41,10.37s-7.41-6.28-7.41-10.37A7.41,7.41,0,0,1,284.91,358.48Z"></path><path class="cls-2" d="M292.32,306.6a7.41,7.41,0,1,1-14.82,0c0-4.09,7.41-10.37,7.41-10.37S292.32,302.51,292.32,306.6Z"></path><path class="cls-2" d="M247.86,306.6a7.41,7.41,0,1,1-14.82,0c0-4.09,7.41-10.37,7.41-10.37S247.86,302.51,247.86,306.6Z"></path><path class="cls-2" d="M203.4,306.6a7.41,7.41,0,0,1-14.82,0c0-4.09,7.41-10.37,7.41-10.37S203.4,302.51,203.4,306.6Z"></path><path class="cls-1" d="M151.53,328.83a7.41,7.41,0,1,1,0,14.82c-4.09,0-10.38-7.41-10.38-7.41S147.44,328.83,151.53,328.83Z"></path><path class="cls-1" d="M329.37,328.83c4.1,0,10.38,7.41,10.38,7.41s-6.28,7.41-10.38,7.41a7.41,7.41,0,0,1,0-14.82Z"></path><path class="cls-3" d="M284.91,321.42a14.82,14.82,0,1,1-14.82,14.82A14.82,14.82,0,0,1,284.91,321.42Zm7.41,14.82a7.41,7.41,0,1,0-7.41,7.41A7.41,7.41,0,0,0,292.32,336.24Z"></path><path class="cls-3" d="M240.45,321.42a14.82,14.82,0,1,1-14.82,14.82A14.82,14.82,0,0,1,240.45,321.42Zm7.41,14.82a7.41,7.41,0,1,0-7.41,7.41A7.41,7.41,0,0,0,247.86,336.24Z"></path><path class="cls-3" d="M196,321.42a14.82,14.82,0,1,1-14.82,14.82A14.83,14.83,0,0,1,196,321.42Zm7.41,14.82a7.41,7.41,0,1,0-7.41,7.41A7.41,7.41,0,0,0,203.4,336.24Z"></path><path class="cls-4" d="M240.3,268.05c58.79,41.24,119.91,36.1,147.89,24.15a157.29,157.29,0,0,1-81.72,90.71c-20.18,9.45-112.76,9.45-132.94,0A157.3,157.3,0,0,1,91.8,292.2c28,12,89.31,17.11,148.2-24.36Zm99.45,68.19s-6.28-7.41-10.38-7.41a7.41,7.41,0,0,0,0,14.82C333.47,343.65,339.75,336.24,339.75,336.24Zm-40,0a14.82,14.82,0,1,0-14.82,14.82A14.82,14.82,0,0,0,299.73,336.24ZM284.91,314a7.41,7.41,0,0,0,7.41-7.41c0-4.09-7.41-10.37-7.41-10.37s-7.41,6.28-7.41,10.37A7.41,7.41,0,0,0,284.91,314Zm7.41,51.88a7.41,7.41,0,0,0-14.82,0c0,4.09,7.41,10.37,7.41,10.37S292.32,370,292.32,365.89Zm-37-29.65a14.82,14.82,0,1,0-14.82,14.82A14.82,14.82,0,0,0,255.27,336.24ZM240.45,314a7.41,7.41,0,0,0,7.41-7.41c0-4.09-7.41-10.37-7.41-10.37S233,302.51,233,306.6A7.41,7.41,0,0,0,240.45,314Zm7.41,51.88a7.41,7.41,0,0,0-14.82,0c0,4.09,7.41,10.37,7.41,10.37S247.86,370,247.86,365.89Zm-37.05-29.65A14.82,14.82,0,1,0,196,351.06,14.83,14.83,0,0,0,210.81,336.24ZM196,314a7.41,7.41,0,0,0,7.41-7.41c0-4.09-7.41-10.37-7.41-10.37s-7.41,6.28-7.41,10.37A7.41,7.41,0,0,0,196,314Zm7.41,51.88a7.41,7.41,0,0,0-14.82,0c0,4.09,7.41,10.37,7.41,10.37S203.4,370,203.4,365.89Zm-44.46-29.65a7.41,7.41,0,0,0-7.41-7.41c-4.09,0-10.38,7.41-10.38,7.41s6.29,7.41,10.38,7.41A7.41,7.41,0,0,0,158.94,336.24Z"></path><path class="cls-5" d="M240.45,261.75c66.38-.08,132.61,10,147.75,30.43v0c-28,11.95-89.1,17.09-147.89-24.15l.15-.21Z"></path><path class="cls-5" d="M240,267.84c-58.89,41.47-120.18,36.33-148.2,24.36v0c15.61-20.1,82.21-30.33,148.65-30.41v6.09l-.15.21Z"></path><path class="cls-2" d="M279.52,196.59c0,46.6-19.95,56.06-38,56.41,11.14-.36,20-6.58,20-35.89,0-45.6-21.09-67.83-21.09-67.83s-21.09,22.23-21.09,67.83c0,29.31,8.86,35.53,20,35.89-18-.35-38-9.81-38-56.41C201.38,124.93,240.45,90,240.45,90S279.52,124.93,279.52,196.59Z"></path><path class="cls-1" d="M261.54,217.11c0,29.31-8.86,35.53-20,35.89h-2.18c-11.14-.36-20-6.58-20-35.89,0-45.6,21.09-67.83,21.09-67.83S261.54,171.51,261.54,217.11Z"></path><path class="cls-6" d="M388.2,292.18v0a157.29,157.29,0,0,1-81.72,90.71c-20.18,9.45-112.76,9.45-132.94,0A157.3,157.3,0,0,1,91.8,292.2"></path><path class="cls-6" d="M91.8,292.2c28,12,89.31,17.11,148.2-24.36"></path><path class="cls-6" d="M388.2,292.2h0c-28,11.95-89.1,17.09-147.89-24.15l-.3-.21"></path><path class="cls-6" d="M388.2,292.18c-15.14-20.46-81.37-30.51-147.75-30.43s-133,10.31-148.65,30.41"></path><polyline class="cls-6" points="240.45 253.02 240.45 261.75 240.45 267.84"></polyline><path class="cls-6" d="M239.91,253h-.55c-11.14-.36-20-6.58-20-35.89,0-45.6,21.09-67.83,21.09-67.83s21.09,22.23,21.09,67.83c0,29.31-8.86,35.53-20,35.89H241"></path><path class="cls-6" d="M239.36,253c-18-.35-38-9.81-38-56.41C201.38,124.93,240.45,90,240.45,90s39.07,34.93,39.07,106.59c0,46.6-19.95,56.06-38,56.41a5,5,0,0,1-.55,0h-1.08A5,5,0,0,1,239.36,253Z"></path><path class="cls-7" d="M255.27,336.24a14.82,14.82,0,1,1-14.82-14.82A14.81,14.81,0,0,1,255.27,336.24Z"></path><path class="cls-6" d="M247.86,306.6a7.41,7.41,0,1,1-14.82,0c0-4.09,7.41-10.37,7.41-10.37S247.86,302.51,247.86,306.6Z"></path><path class="cls-6" d="M247.86,365.89c0,4.09-7.41,10.37-7.41,10.37S233,370,233,365.89a7.41,7.41,0,0,1,14.82,0Z"></path><path class="cls-6" d="M196,328.83a7.41,7.41,0,1,1-7.41,7.41A7.41,7.41,0,0,1,196,328.83Z"></path><path class="cls-6" d="M284.91,328.83a7.41,7.41,0,1,1-7.41,7.41A7.41,7.41,0,0,1,284.91,328.83Z"></path><path class="cls-7" d="M299.73,336.24a14.82,14.82,0,1,1-14.82-14.82A14.81,14.81,0,0,1,299.73,336.24Z"></path><path class="cls-6" d="M292.32,306.6a7.41,7.41,0,1,1-14.82,0c0-4.09,7.41-10.37,7.41-10.37S292.32,302.51,292.32,306.6Z"></path><path class="cls-6" d="M292.32,365.89c0,4.09-7.41,10.37-7.41,10.37s-7.41-6.28-7.41-10.37a7.41,7.41,0,0,1,14.82,0Z"></path><path class="cls-6" d="M329.37,328.83c4.1,0,10.38,7.41,10.38,7.41s-6.28,7.41-10.38,7.41a7.41,7.41,0,0,1,0-14.82Z"></path><path class="cls-7" d="M210.81,336.24A14.82,14.82,0,1,1,196,321.42,14.82,14.82,0,0,1,210.81,336.24Z"></path><path class="cls-6" d="M203.4,306.6a7.41,7.41,0,0,1-14.82,0c0-4.09,7.41-10.37,7.41-10.37S203.4,302.51,203.4,306.6Z"></path><path class="cls-6" d="M203.4,365.89c0,4.09-7.41,10.37-7.41,10.37s-7.41-6.28-7.41-10.37a7.41,7.41,0,0,1,14.82,0Z"></path><path class="cls-6" d="M240.45,328.83a7.41,7.41,0,1,1-7.41,7.41A7.41,7.41,0,0,1,240.45,328.83Z"></path><path class="cls-6" d="M151.53,328.83a7.41,7.41,0,1,1,0,14.82c-4.09,0-10.38-7.41-10.38-7.41S147.44,328.83,151.53,328.83Z"></path></svg>