<svg id="Christmas_Tree" style="enable-background:new 0 0 24 24;" version="1.1" viewBox="0 0 24 24" xml:space="preserve" xmlns="http://www.w3.org/2000/svg" xmlns:xlink="http://www.w3.org/1999/xlink"><title></title><g><polygon points="12,3.5 6.5,9.5 9.5,9.5 5,15 8,15 3.5,20.5 20.5,20.5 16,15 19,15 14.5,9.5 17.5,9.5  " style="fill:#0DB14B;"></polygon><polygon points="12,3.5 6.5,9.5 9.09,9.5  " style="opacity:0.2;fill:#FFFFFF;enable-background:new    ;"></polygon><polygon points="17.5,9.5 12,3.5 14.91,9.5  " style="opacity:0.1;enable-background:new    ;"></polygon><polygon points="8.29,15 10.68,9.5 9.5,9.5 5,15 8,15 3.5,20.5    7.5,20.5 9.88,15  " style="opacity:0.2;fill:#FFFFFF;enable-background:new    ;"></polygon><polygon points="16,15 19,15 14.5,9.5 13.32,9.5 15.71,15 14.12,15 16.5,20.5    20.5,20.5  " style="opacity:0.1;enable-background:new    ;"></polygon><g><circle cx="11.5" cy="8" r="1" style="fill:#FFCF01;"></circle><circle cx="14" cy="13" r="1" style="fill:#FFCF01;"></circle><circle cx="10" cy="17" r="1" style="fill:#FFCF01;"></circle><circle cx="15" cy="18" r="1" style="fill:#FFCF01;"></circle></g><path d="M10.44,20.5c-0.087,1.145-0.601,2.216-1.44,3h6c-0.839-0.784-1.353-1.855-1.44-3H10.44z   " id="_Path_" style="fill:#9D581F;"></path><path d="M10.44,20.5c-0.087,1.145-0.601,2.216-1.44,3h2   c0.312-0.97,0.474-1.981,0.48-3H10.44z" style="opacity:0.2;fill:#FFFFFF;enable-background:new    ;"></path><path d="M13.56,20.5h-1c0.006,1.019,0.168,2.03,0.48,3h2   C14.186,22.722,13.657,21.651,13.56,20.5z" style="opacity:0.1;enable-background:new    ;"></path><polygon points="12,0.5 12.8,2.13 14.71,2.53 13.3,3.65 13.6,5.44 12,4.59 10.4,5.44 10.7,3.65 9.29,2.53    11.2,2.13  " style="fill:#FFCF01;"></polygon><path d="M20.89,20.18l-3.83-4.68H19c0.276,0.003,0.503-0.218,0.506-0.494   c0.001-0.119-0.04-0.234-0.116-0.326L15.56,10h1.94c0.276,0.002,0.502-0.22,0.503-0.497c0.001-0.127-0.047-0.25-0.133-0.343L14,5   l-0.19-1.12L15,2.92c0.235-0.145,0.308-0.453,0.162-0.688C15.085,2.106,14.956,2.021,14.81,2l-1.67-0.36l-0.69-1.36   c-0.144-0.249-0.462-0.333-0.711-0.189c-0.079,0.046-0.144,0.111-0.189,0.189l-0.69,1.41L9.19,2   C8.917,2.04,8.728,2.294,8.768,2.568C8.79,2.713,8.875,2.842,9,2.92l1.18,0.93L10,5L6.13,9.16C5.942,9.362,5.954,9.679,6.157,9.867   C6.25,9.953,6.373,10.001,6.5,10h1.94l-3.83,4.68c-0.177,0.212-0.148,0.527,0.064,0.704C4.766,15.46,4.881,15.501,5,15.5h1.94   l-3.83,4.68c-0.177,0.212-0.148,0.527,0.064,0.704C3.266,20.96,3.381,21.001,3.5,21h6.33c-0.13,0.807-0.528,1.547-1.13,2.1   c-0.221,0.166-0.266,0.479-0.1,0.7C8.694,23.926,8.843,24,9,24h6c0.276,0,0.5-0.224,0.5-0.5c0-0.157-0.074-0.306-0.2-0.4   c-0.602-0.553-1-1.293-1.13-2.1h6.33c0.276,0.003,0.503-0.218,0.506-0.494C21.007,20.387,20.966,20.271,20.89,20.18z M11.3,2.61   c0.149-0.034,0.274-0.133,0.34-0.27L12,1.63l0.35,0.72c0.066,0.137,0.191,0.236,0.34,0.27l0.87,0.19L13,3.26   c-0.144,0.115-0.213,0.299-0.18,0.48l0.13,0.79l-0.71-0.37c-0.144-0.075-0.316-0.075-0.46,0l-0.71,0.37l0.13-0.79   c0.028-0.185-0.049-0.37-0.2-0.48L10.42,2.8L11.3,2.61z M13.89,23h-3.78c0.369-0.616,0.623-1.293,0.75-2h2.26   C13.253,21.708,13.514,22.386,13.89,23z M4.56,20l3.83-4.68c0.177-0.212,0.148-0.527-0.064-0.704C8.234,14.54,8.119,14.499,8,14.5   H6.06l3.83-4.68c0.177-0.212,0.148-0.527-0.064-0.704C9.734,9.04,9.619,8.999,9.5,9H7.64l2.83-3.09c0.053,0.009,0.107,0.009,0.16,0   L12,5.16l1.37,0.72c0.056,0.01,0.114,0.01,0.17,0L16.36,9H14.5c-0.276-0.003-0.503,0.218-0.506,0.494   c-0.001,0.119,0.04,0.234,0.116,0.326l3.83,4.68H16c-0.276-0.003-0.503,0.218-0.506,0.494c-0.001,0.119,0.04,0.234,0.116,0.326   L19.44,20H4.56z" style="fill:#303C42;"></path><linearGradient gradientTransform="matrix(1 0 0 -1 0 24)" gradientUnits="userSpaceOnUse" id="SVGID_1_" x1="5.4202" x2="22.4202" y1="14.3604" y2="6.4304"><stop offset="0" style="stop-color:#FFFFFF;stop-opacity:0.2"></stop><stop offset="1" style="stop-color:#FFFFFF;stop-opacity:0"></stop></linearGradient><path d="M20.89,20.18l-3.83-4.68H19c0.276,0.003,0.503-0.218,0.506-0.494   c0.001-0.119-0.04-0.234-0.116-0.326L15.56,10h1.94c0.276,0.002,0.502-0.22,0.503-0.497c0.001-0.127-0.047-0.25-0.133-0.343L14,5   l-0.19-1.12L15,2.92c0.235-0.145,0.308-0.453,0.162-0.688C15.085,2.106,14.956,2.021,14.81,2l-1.67-0.36l-0.69-1.36   c-0.144-0.249-0.462-0.333-0.711-0.189c-0.079,0.046-0.144,0.111-0.189,0.189l-0.69,1.41L9.19,2   C8.917,2.04,8.728,2.294,8.768,2.568C8.79,2.713,8.875,2.842,9,2.92l1.18,0.93L10,5L6.13,9.16C5.942,9.362,5.954,9.679,6.157,9.867   C6.25,9.953,6.373,10.001,6.5,10h1.94l-3.83,4.68c-0.177,0.212-0.148,0.527,0.064,0.704C4.766,15.46,4.881,15.501,5,15.5h1.94   l-3.83,4.68c-0.177,0.212-0.148,0.527,0.064,0.704C3.266,20.96,3.381,21.001,3.5,21h6.33c-0.13,0.807-0.528,1.547-1.13,2.1   c-0.221,0.166-0.266,0.479-0.1,0.7C8.694,23.926,8.843,24,9,24h6c0.276,0,0.5-0.224,0.5-0.5c0-0.157-0.074-0.306-0.2-0.4   c-0.602-0.553-1-1.293-1.13-2.1h6.33c0.276,0.003,0.503-0.218,0.506-0.494C21.007,20.387,20.966,20.271,20.89,20.18z" style="fill:url(#SVGID_1_);"></path></g></svg>