<svg id="Layer_1" style="enable-background:new 0 0 512 512;" version="1.1" viewBox="0 0 512 512" xml:space="preserve" xmlns="http://www.w3.org/2000/svg" xmlns:xlink="http://www.w3.org/1999/xlink"><style type="text/css">
	.st0{fill:#CFF1FF;}
	.st1{fill:#4CC3F2;}
	.st2{fill:#0A557F;}
	.st3{fill:#FFFFFF;}
</style><g><polygon class="st0" points="41.8,243.8 99.2,186.3 292.9,164.7 143.8,287.9  "></polygon><polygon class="st0" points="327.6,414.7 270.1,472.1 226,370.1 349.2,221  "></polygon><polygon class="st1" points="213.3,362 139.7,374.2 152,300.6 358.1,130.3 383.6,155.8  "></polygon><rect class="st2" height="15" transform="matrix(0.7071 -0.7071 0.7071 0.7071 -312.8991 189.0638)" width="15" x="64.3" y="464.7"></rect><rect class="st2" height="15" transform="matrix(0.7071 -0.7071 0.7071 0.7071 -300.4354 158.9751)" width="15" x="34.2" y="434.6"></rect><polygon class="st0" points="101.1,402.2 28.6,329.6 48.7,309.5 129.5,344.4 123.6,379.7  "></polygon><polygon class="st0" points="204.4,465.2 184.3,485.3 111.8,412.8 134.2,390.3 169.5,384.5  "></polygon><polygon class="st1" points="460.9,62.2 420.9,110.7 403.2,93.1 451.8,53 470.4,43.5  "></polygon><path class="st2" d="M443.5,40.3L314,147.3l-63.6,7.1l12-12l-10.6-10.6L226.6,157l-46.9,5.2l23.7-23.7l-10.6-10.6l-37,37L92.3,172   l-76.8,76.8l121.1,52.4l-4.7,28l-86.7-37.5L7.4,329.6l68.1,68.1l-23.2,23.2l10.6,10.6l23.2-23.2l19.5,19.5L82.4,451L93,461.6   l23.2-23.2l68.1,68.1l37.9-37.9l-37.5-86.7l28-4.7l52.4,121.1l76.8-76.8l7.1-63.5l37-37l-10.6-10.6l-23.8,23.8l5.2-46.9l25.3-25.3   l-10.6-10.6l-12,12l7.1-63.6L473,71.1l0.5-0.6l31.1-61.1L443.5,40.3z M41.8,243.8l57.4-57.4l193.7-21.6L143.8,287.9L41.8,243.8z    M48.7,309.5l80.7,34.9l-5.9,35.3l-22.4,22.4l-72.6-72.5L48.7,309.5z M204.4,465.2l-20.1,20.1l-72.5-72.6l22.4-22.4l35.3-5.9   L204.4,465.2z M327.6,414.7l-57.4,57.4l-44.1-102L349.2,221L327.6,414.7z M213.3,362l-73.6,12.2l12.2-73.6l206.2-170.3l25.5,25.5   L213.3,362z M393.2,144.1l-23.5-23.5l21.8-18l19.7,19.7L393.2,144.1z M460.9,62.2l-40.1,48.5l-17.6-17.6L451.8,53l18.7-9.5   L460.9,62.2z"></path><rect class="st2" height="15" transform="matrix(0.7071 -0.7071 0.7071 0.7071 -95.8848 368.3027)" width="15" x="389.1" y="292.4"></rect><rect class="st2" height="15" transform="matrix(0.7071 -0.7071 0.7071 0.7071 -55.222 348.2596)" width="15" x="385.3" y="233.3"></rect><rect class="st2" height="15" transform="matrix(0.7072 -0.707 0.707 0.7072 -20.2705 185.6771)" width="15" x="206.5" y="109.8"></rect><rect class="st2" height="15" transform="matrix(0.7071 -0.7071 0.7071 0.7071 -5.6455 228.605)" width="15" x="265.6" y="113.6"></rect><rect class="st3" height="15" transform="matrix(0.7071 -0.7071 0.7071 0.7071 -114.5945 253.577)" width="132" x="182.8" y="257.6"></rect><rect class="st3" height="15" transform="matrix(0.7071 -0.7071 0.7071 0.7071 -177.1732 227.6561)" width="15" x="178.7" y="320.2"></rect><rect class="st2" height="15" transform="matrix(0.7071 -0.7071 0.7071 0.7071 -204.3297 402.903)" width="67.3" x="350.5" y="440.6"></rect><rect class="st2" height="15" transform="matrix(0.7071 -0.7071 0.7071 0.7071 -244.0389 386.4515)" width="15" x="337" y="480.3"></rect><rect class="st2" height="15" transform="matrix(0.7071 -0.7071 0.7071 0.7071 22.707 123.9547)" width="67.3" x="127.3" y="27.1"></rect><rect class="st2" height="15" transform="matrix(0.7071 -0.7071 0.7071 0.7071 -17.0033 107.504)" width="15" x="113.8" y="66.8"></rect></g></svg>