<svg id="Layer_5" viewBox="0 0 32 32" xmlns="http://www.w3.org/2000/svg"><defs><style>.cls-1{fill:#fff;}.cls-2{fill:#ffbbbc;}.cls-3{fill:#361041;}.cls-4{fill:#f41870;}</style></defs><circle class="cls-1" cx="21.13" cy="11.69" r="9.1"></circle><polygon class="cls-2" points="18.95 2.77 15.56 4.81 12.69 7.67 10.69 12.18 10.92 16.59 12.81 20.7 16.52 22.98 20.32 22.98 24.09 20.49 26.01 18.9 26.16 20.06 25.14 23.49 22.48 26.78 17.46 29.29 11.98 29.29 7.63 27.6 4.46 24.11 2.69 19.23 2.69 14.83 3.87 10.56 6.3 7.33 9.98 4.32 14.87 2.68 17.43 2.25 18.95 2.77"></polygon><path class="cls-3" d="M21.72,10.46a4.21,4.21,0,0,0-4.13-2c-1.66.37-2.25,2.52-1.84,4s2.22,2.81,3.57,3.66a37.06,37.06,0,0,0,4.42,2.41,50.48,50.48,0,0,0,2.81-7.34C26.84,9.92,27,8.1,26,7.11s-2.31-.42-3.17.27A4.09,4.09,0,0,0,21.72,10.46Z"></path><path class="cls-2" d="M14.9,19c-.09.27,0,.22.19.5.29-.38.6-.74.91-1.1s.57-.4.17-.85c-.22.26-.46.52-.69.78S15,18.77,14.9,19Z"></path><path class="cls-2" d="M18.86,20.26c-.21.47-.24.41.23.63.16-.35.37-.7.51-1.06s.21-.4-.22-.6C19.2,19.57,19,19.91,18.86,20.26Z"></path><path class="cls-2" d="M13,16.17a10.56,10.56,0,0,0,1-.56c.37-.29.34-.11.12-.59a6.89,6.89,0,0,0-1.12.64s-.23.09-.25.16S12.83,16.26,13,16.17Z"></path><path class="cls-2" d="M12.7,12c-.28.09-.24-.09-.26,0,0,0,0,.38,0,.43l.83,0C13.21,12,13.19,11.82,12.7,12Z"></path><path class="cls-2" d="M27.69,16.8c-.25-.14-.7-.49-.92-.4-.63.26,0,.61.2.71s.89.62,1.07.57a2.3,2.3,0,0,0,.27-.49C28.29,17.1,27.79,16.86,27.69,16.8Z"></path><path class="cls-2" d="M29.81,13c-.15,0-1.8-.54-1.43,0,.13.21,1.41.37,1.69.44C30.17,13.13,30.21,13.08,29.81,13Z"></path><path class="cls-2" d="M29.92,7.84c-.41.07-.9,0-1,.32-.11.51.37.32.69.28.6-.08,1,0,1-.62C30.58,7.66,30,7.83,29.92,7.84Z"></path><path class="cls-2" d="M26.51,5.74c.15-.28.29-.56.45-.84a2.58,2.58,0,0,0,.4-.7c0-.27,0-.21-.31-.43a4.76,4.76,0,0,0-.64,1C26.13,5.29,26.07,5.36,26.51,5.74Z"></path><path class="cls-2" d="M23.16,3.11a3.18,3.18,0,0,0,0-.66c-.07-.09-.46-.1-.47,0-.05.55-.12,1.12-.12,1.68a2.79,2.79,0,0,0,.49,0A4.64,4.64,0,0,0,23.16,3.11Z"></path><path class="cls-2" d="M18.82,6c.39-.18.36-.07.31-.45a6.75,6.75,0,0,0-.42-1.19c-.44.21-.47.11-.32.61C18.43,5.06,18.74,6,18.82,6Z"></path><path class="cls-3" d="M17.79,1.84a9.75,9.75,0,0,0-2.16,0,17.37,17.37,0,0,0-4.71,1.4A15.33,15.33,0,0,0,4,9.15,15.47,15.47,0,0,0,2,19a13.21,13.21,0,0,0,3.08,7.22,12.9,12.9,0,0,0,7.73,4c5.41.72,11.64-2.68,13.43-8,.12-.36,1-4.26-.3-3.67-1,.41-2,1.59-3,2.26a7.45,7.45,0,0,1-4.45,1.66,6.52,6.52,0,0,1-5-2.29,7.77,7.77,0,0,1-1.9-4.29c.06.33-.06-.57-.07-.68,0-.38,0-.76,0-1.14a12.7,12.7,0,0,1,.14-2,10.61,10.61,0,0,1,2-4.48,13.83,13.83,0,0,1,3.39-3.13,10.08,10.08,0,0,1,2-1.05c.41-.16,1.82-.39,1.22-1.11C19.68,1.85,18.35,1.89,17.79,1.84ZM10.05,15.66c.75,4.1,3.52,8.19,8.06,8.24a8.4,8.4,0,0,0,4.46-1.44,9.11,9.11,0,0,0,1.67-1.36,8.68,8.68,0,0,1,1.54-1.49,9.46,9.46,0,0,1-1.88,4.65c-1.3,2-3.68,3.08-5.82,4,.42-.18-.2.06-.28.09a6.34,6.34,0,0,1-.74.23c-.47.1-1,.16-1.43.22a10.79,10.79,0,0,1-3.21,0A9.22,9.22,0,0,1,7.9,26.83a12.4,12.4,0,0,1-4.57-8.16c-.5-3.09.41-7.74,2.58-9.91a14,14,0,0,1,4.78-3.82,18.65,18.65,0,0,1,7.24-2.17C12.92,4.6,9.07,10.27,10.05,15.66Z"></path><path class="cls-2" d="M15.28,7.6c-.49-.37-.47-.38-.83.09.17.13.41.45.57.24Z"></path><path class="cls-4" d="M23.13,17s-8.47-3.24-6-7.14c1.41-1.66,5.17,2.29,5.17,2.29s.1-4.85,2.33-4.43C27.39,8.27,23.13,17,23.13,17Z"></path></svg>