<svg id="Layer_1" style="enable-background:new 0 0 24 24;" version="1.1" viewBox="0 0 24 24" xml:space="preserve" xmlns="http://www.w3.org/2000/svg" xmlns:xlink="http://www.w3.org/1999/xlink"><g id="XMLID_1712_"><path d="M15,5.5c-1.067,0-2.081,0.256-3,0.712C11.081,5.756,10.067,5.5,9,5.5   c-4.142,0-7.5,3.806-7.5,8.5s3.358,8.5,7.5,8.5c1.067,0,4.933,0,6,0c4.142,0,7.5-3.806,7.5-8.5S19.142,5.5,15,5.5z" id="XMLID_1306_" style="fill:#F99F38;"></path><path d="M5,14c0-3.567,1.311-6.688,3.278-8.459   C4.475,5.953,1.5,9.581,1.5,14c0,4.418,2.975,8.047,6.778,8.459C6.311,20.688,5,17.567,5,14z" id="XMLID_1474_" style="opacity:0.2;fill:#FFFFFF;enable-background:new    ;"></path><path d="M15.722,5.541C17.689,7.311,19,10.433,19,14   s-1.311,6.688-3.278,8.459C19.525,22.047,22.5,18.419,22.5,14C22.5,9.582,19.525,5.953,15.722,5.541z" id="XMLID_1475_" style="opacity:0.1;enable-background:new    ;"></path><polygon id="XMLID_1302_" points="8,8.5 5.5,12.5 10.5,12.5  " style="fill:#5C6671;"></polygon><polygon id="XMLID_1303_" points="16,8.5 18.5,12.5 13.5,12.5  " style="fill:#5C6671;"></polygon><path d="M6.51,15.5c0.028,1.385,0.679,2.72,1.703,3.611l0.504-0.936l1.761,0.948   l-0.541,1.006c0.639,0.237,1.336,0.371,2.068,0.371c0.178,0,0.346-0.032,0.519-0.047l-0.188-1.296l1.979-0.288l0.156,1.076   c1.762-0.811,2.991-2.534,3.029-4.446H6.51V15.5z" id="XMLID_1304_" style="fill:#5C6671;"></path><path d="M11.5,5.5v0.497c0.168,0.068,0.337,0.134,0.5,0.215   c0.476-0.236,0.979-0.416,1.5-0.537V5.5c0-2.209-1.791-4-4-4v2C10.605,3.5,11.5,4.395,11.5,5.5z" id="XMLID_1472_" style="fill:#0DB14B;"></path><g id="XMLID_1831_"><path d="M10.937,12.742c0.088-0.159,0.083-0.353-0.014-0.507l-2.5-4    c-0.183-0.292-0.665-0.292-0.848,0l-2.5,4c-0.097,0.154-0.102,0.349-0.014,0.507C5.149,12.901,5.317,13,5.499,13h5    C10.682,13,10.849,12.901,10.937,12.742z M6.402,12L8,9.443L9.598,12H6.402z" id="XMLID_1849_" style="fill:#303C42;"></path><path d="M16.424,8.235c-0.183-0.292-0.665-0.292-0.848,0l-2.5,4    c-0.097,0.154-0.102,0.349-0.014,0.507C13.15,12.901,13.318,13,13.5,13h5c0.182,0,0.349-0.099,0.438-0.258    c0.088-0.159,0.083-0.353-0.014-0.507L16.424,8.235z M14.402,12L16,9.443L17.598,12H14.402z" id="XMLID_1852_" style="fill:#303C42;"></path><path d="M17.5,15H6.51c-0.134,0-0.263,0.054-0.357,0.15s-0.146,0.226-0.143,0.36    c0.03,1.496,0.73,2.983,1.875,3.979c0.115,0.1,0.269,0.144,0.418,0.114c0.149-0.027,0.278-0.121,0.351-0.255l0.267-0.495    l0.88,0.474l-0.305,0.566c-0.068,0.127-0.079,0.278-0.027,0.414s0.159,0.242,0.294,0.292c0.721,0.267,1.475,0.402,2.242,0.402    c0.136,0,0.267-0.015,0.397-0.031l0.164-0.018c0.137-0.011,0.264-0.079,0.35-0.187c0.085-0.108,0.123-0.247,0.103-0.383    l-0.116-0.802l0.99-0.144l0.084,0.582c0.022,0.156,0.117,0.292,0.256,0.368c0.138,0.075,0.305,0.081,0.448,0.015    c1.976-0.909,3.279-2.829,3.32-4.89c0.002-0.134-0.049-0.264-0.143-0.36C17.763,15.054,17.634,15,17.5,15z M14.863,19.163    l-0.053-0.365c-0.019-0.131-0.089-0.25-0.196-0.329c-0.106-0.079-0.239-0.112-0.371-0.094l-1.979,0.288    c-0.273,0.04-0.463,0.293-0.423,0.566L11.953,20c-0.437-0.004-0.868-0.06-1.289-0.167l0.254-0.473    c0.131-0.243,0.04-0.546-0.204-0.677l-1.761-0.948c-0.116-0.063-0.252-0.076-0.381-0.039c-0.127,0.038-0.233,0.125-0.296,0.242    L8.092,18.28c-0.554-0.646-0.921-1.449-1.041-2.281h9.906C16.772,17.27,16,18.432,14.863,19.163z" id="XMLID_1855_" style="fill:#303C42;"></path><path d="M15,5c-0.351,0-0.698,0.035-1.042,0.086C13.745,2.801,11.839,1,9.5,1    C9.224,1,9,1.224,9,1.5v2C9,3.776,9.224,4,9.5,4c0.755,0,1.375,0.563,1.479,1.29C10.335,5.104,9.674,5,9,5c-4.411,0-8,4.038-8,9    s3.589,9,8,9h6c4.411,0,8-4.038,8-9S19.411,5,15,5z M10,3.05V2.035c1.628,0.234,2.886,1.596,2.982,3.265    C12.65,5.398,12.322,5.511,12,5.658V5.5C12,4.292,11.14,3.283,10,3.05z M15,22H9c-3.86,0-7-3.589-7-8s3.14-8,7-8    c0.79,0,1.562,0.159,2.303,0.456c0.002,0.001,0.003,0.001,0.004,0.002c0.158,0.063,0.316,0.125,0.47,0.201    c0.14,0.069,0.305,0.069,0.444,0c0.883-0.438,1.818-0.66,2.778-0.66c3.86,0,7,3.589,7,8S18.86,22,15,22z" id="XMLID_1858_" style="fill:#303C42;"></path></g><linearGradient gradientUnits="userSpaceOnUse" id="XMLID_2_" x1="2.3375" x2="22.1046" y1="8.9172" y2="18.1347"><stop offset="0" style="stop-color:#FFFFFF;stop-opacity:0.2"></stop><stop offset="1" style="stop-color:#FFFFFF;stop-opacity:0"></stop></linearGradient><path d="M15,5c-0.351,0-0.698,0.035-1.042,0.086C13.745,2.801,11.839,1,9.5,1   C9.224,1,9,1.224,9,1.5v2C9,3.776,9.224,4,9.5,4c0.755,0,1.375,0.563,1.479,1.29C10.335,5.104,9.674,5,9,5c-4.411,0-8,4.038-8,9   s3.589,9,8,9h6c4.411,0,8-4.038,8-9S19.411,5,15,5z" id="XMLID_1478_" style="fill:url(#XMLID_2_);"></path></g></svg>